<?xml version="1.0" encoding="UTF-8" standalone="no"?>
<!DOCTYPE svg PUBLIC "-//W3C//DTD SVG 1.1//EN" "http://www.w3.org/Graphics/SVG/1.1/DTD/svg11.dtd">
<svg width="100%" height="100%" viewBox="0 0 60 60" version="1.1" xmlns="http://www.w3.org/2000/svg" xmlns:xlink="http://www.w3.org/1999/xlink" xml:space="preserve" xmlns:serif="http://www.serif.com/" style="fill-rule:evenodd;clip-rule:evenodd;stroke-linejoin:round;stroke-miterlimit:2;">
    <g transform="matrix(0.880008,0,0,0.880008,1.81919,6.53158)">
        <g transform="matrix(1.3577,0,0,1.4714,9.74089,-41.403)">
            <path d="M16.835,39.889L16.835,28.646C16.835,25.582 19.367,23.094 22.484,23.094L33.782,23.094C36.9,23.094 39.431,25.582 39.431,28.646L39.431,39.889C39.431,42.953 36.9,45.441 33.782,45.441L24.616,45.441C24.616,52.855 25.993,57.372 27.823,61.709C21.723,61.709 16.887,53.384 16.887,43.126C16.887,42.713 16.82,40.295 16.835,39.889Z" style="fill:rgb(235,235,235);"/>
        </g>
        <g transform="matrix(1.3577,0,0,1.4714,-24.9213,-41.403)">
            <path d="M16.835,39.889L16.835,28.646C16.835,25.582 19.367,23.094 22.484,23.094L33.782,23.094C36.9,23.094 39.431,25.582 39.431,28.646L39.431,39.889C39.431,42.953 36.9,45.441 33.782,45.441L24.616,45.441C24.616,52.855 25.993,57.372 27.823,61.709C21.723,61.709 16.887,53.384 16.887,43.126C16.887,42.713 16.82,40.295 16.835,39.889Z" style="fill:rgb(235,235,235);"/>
        </g>
    </g>
</svg>
