<svg width="24" height="24" viewBox="0 0 24 24" fill="none" xmlns="http://www.w3.org/2000/svg">
<path d="M19.68 1.91998H4.31998C2.99518 1.91998 1.91998 2.99518 1.91998 4.31998V19.68C1.91998 21.0048 2.99518 22.08 4.31998 22.08H19.68C21.0048 22.08 22.08 21.0048 22.08 19.68V4.31998C22.08 2.99518 21.0048 1.91998 19.68 1.91998ZM8.15998 9.59998V18.72H5.27998V9.59998H8.15998ZM5.27998 6.94558C5.27998 6.27358 5.85598 5.75998 6.71998 5.75998C7.58398 5.75998 8.12638 6.27358 8.15998 6.94558C8.15998 7.61758 7.62238 8.15998 6.71998 8.15998C5.85598 8.15998 5.27998 7.61758 5.27998 6.94558ZM18.72 18.72H15.84C15.84 18.72 15.84 14.2752 15.84 13.92C15.84 12.96 15.36 12 14.16 11.9808H14.1216C12.96 11.9808 12.48 12.9696 12.48 13.92C12.48 14.3568 12.48 18.72 12.48 18.72H9.59998V9.59998H12.48V10.8288C12.48 10.8288 13.4064 9.59998 15.2688 9.59998C17.1744 9.59998 18.72 10.9104 18.72 13.5648V18.72Z" fill="#e1e0e0"/>
</svg>
